<svg width="924" height="374" viewBox="0 0 924 374" fill="none" xmlns="http://www.w3.org/2000/svg">
<path d="M18.16 89.04C18.16 78.336 23.2 70.704 30.928 66.672L31.696 67.92C24.688 72.672 22.096 79.248 22.096 89.04C22.096 98.832 24.688 105.408 31.696 110.16L30.928 111.408C23.2 107.376 18.16 99.744 18.16 89.04ZM56.2923 102H46.2603V100.608C47.9403 100.608 48.5163 100.368 48.5163 99.552C48.5163 99.216 48.4203 98.928 48.1803 98.544L45.1562 93.888L44.1963 92.208H44.0043L40.0683 97.872C39.5883 98.64 38.9163 99.504 38.9163 99.888C38.9163 100.416 39.4922 100.608 41.0763 100.608V102H33.0602V100.608C34.6923 100.608 35.5563 100.08 37.1403 98.208L42.9003 90.72L37.9083 83.568C36.2283 81.168 35.6523 80.688 33.6843 80.688V79.296H44.0043V80.64C42.4683 80.64 41.7003 81.024 41.7003 81.744C41.7003 82.512 42.5643 83.52 44.1963 86.208L45.3483 88.32H45.5403L47.7963 85.056C49.0923 83.28 49.5243 82.56 49.5243 81.792C49.5243 81.072 49.0923 80.64 47.5563 80.64V79.296H55.4763V80.688C53.8443 80.688 52.7403 81.552 51.6363 82.944L46.5483 89.472L52.4523 97.824C53.7963 99.744 54.5163 100.608 56.2923 100.608V102ZM99.0059 86.304H70.3979V83.04H99.0059V86.304ZM99.0059 96.096H70.3979V92.88H99.0059V96.096ZM133.169 89.76L105.377 103.2V99.984L126.593 89.52L105.377 79.056V75.744L133.169 89.28V89.76ZM156.597 99.6C156.597 101.088 155.541 102.384 153.621 102.384C151.701 102.384 150.789 101.184 150.789 99.552C150.789 97.92 151.893 96.528 153.669 96.528C155.541 96.528 156.597 97.968 156.597 99.6ZM168.362 99.6C168.362 101.088 167.306 102.384 165.386 102.384C163.466 102.384 162.554 101.184 162.554 99.552C162.554 97.92 163.658 96.528 165.434 96.528C167.306 96.528 168.362 97.968 168.362 99.6ZM180.128 99.6C180.128 101.088 179.072 102.384 177.152 102.384C175.232 102.384 174.32 101.184 174.32 99.552C174.32 97.92 175.424 96.528 177.2 96.528C179.072 96.528 180.128 97.968 180.128 99.6ZM219.535 89.04C219.535 78.336 224.575 70.704 232.303 66.672L233.071 67.92C226.063 72.672 223.471 79.248 223.471 89.04C223.471 98.832 226.063 105.408 233.071 110.16L232.303 111.408C224.575 107.376 219.535 99.744 219.535 89.04ZM272.476 89.04C272.476 99.744 267.436 107.376 259.708 111.408L258.94 110.16C265.948 105.408 268.54 98.832 268.54 89.04C268.54 79.248 265.948 72.672 258.94 67.92L259.708 66.672C267.436 70.704 272.476 78.336 272.476 89.04ZM276.816 89.04C276.816 78.336 281.856 70.704 289.584 66.672L290.352 67.92C283.344 72.672 280.752 79.248 280.752 89.04C280.752 98.832 283.344 105.408 290.352 110.16L289.584 111.408C281.856 107.376 276.816 99.744 276.816 89.04ZM300.597 99.6C300.597 101.088 299.541 102.384 297.621 102.384C295.701 102.384 294.789 101.184 294.789 99.552C294.789 97.92 295.893 96.528 297.669 96.528C299.541 96.528 300.597 97.968 300.597 99.6ZM312.362 99.6C312.362 101.088 311.306 102.384 309.386 102.384C307.466 102.384 306.554 101.184 306.554 99.552C306.554 97.92 307.658 96.528 309.434 96.528C311.306 96.528 312.362 97.968 312.362 99.6ZM324.128 99.6C324.128 101.088 323.072 102.384 321.152 102.384C319.232 102.384 318.32 101.184 318.32 99.552C318.32 97.92 319.424 96.528 321.2 96.528C323.072 96.528 324.128 97.968 324.128 99.6ZM341.893 99.024H341.701C339.445 100.992 337.717 102.336 334.645 102.336C330.949 102.336 328.933 100.032 328.933 96.96C328.933 90.624 337.429 89.376 341.557 88.08V85.968C341.557 81.792 340.117 80.208 337.237 80.208C334.501 80.208 334.021 81.216 334.021 84.096C334.021 85.584 333.253 86.304 331.909 86.304C330.949 86.304 329.893 85.584 329.893 84C329.893 81.312 333.109 78.72 338.341 78.72C343.573 78.72 345.541 81.12 345.541 86.112V97.008C345.541 98.976 345.973 99.36 346.981 99.36C347.893 99.36 348.565 98.88 349.237 98.16L349.957 98.928C348.373 101.232 347.221 102.24 344.773 102.24C342.661 102.24 342.181 101.136 341.893 99.024ZM341.557 97.584V89.664C337.189 90.768 333.157 92.064 333.157 95.808C333.157 98.208 334.549 99.696 336.613 99.696C338.197 99.696 339.925 98.928 341.557 97.584ZM358.956 78.864V83.808H359.1C361.548 80.256 362.988 78.576 365.292 78.576C367.164 78.576 368.076 79.632 368.076 81.264C368.076 83.088 367.02 83.856 365.964 83.856C364.38 83.856 363.42 82.224 362.844 82.224C361.74 82.224 360.204 84.24 359.052 86.16V97.104C359.052 100.128 359.964 100.608 363.564 100.608V102H351.564V100.608C354.732 100.608 355.068 100.032 355.068 97.344V84.144C355.068 82.416 355.068 81.552 353.34 81.552C352.38 81.552 351.852 81.648 351.852 81.648V80.304L357.804 78.864H358.956ZM374.55 93.168V93.072C372.246 91.728 370.854 89.664 370.854 86.544C370.854 81.744 374.454 78.72 379.542 78.72C382.71 78.72 384.87 79.92 384.87 79.92L391.062 79.584V82.176L386.55 82.032V82.272C387.222 83.232 388.278 84.816 388.278 87.216C388.278 91.68 384.822 94.512 379.782 94.512C378.246 94.512 376.902 94.224 375.654 93.792C375.174 94.464 374.406 96.192 374.406 97.008C374.406 98.448 375.654 98.928 380.07 98.928C386.118 98.928 390.726 99.12 390.726 104.64C390.726 111.072 383.622 113.28 377.574 113.28C371.286 113.28 369.414 110.64 369.414 108C369.414 106.416 370.71 104.784 373.302 102.288V102.096C371.67 101.28 370.614 99.984 370.614 98.64C370.614 96.912 372.294 94.896 374.55 93.168ZM374.502 102.48C373.494 104.256 373.158 105.36 373.158 106.368C373.158 109.152 375.462 110.544 380.358 110.544C386.022 110.544 388.278 108.048 388.278 105.984C388.278 102.672 383.574 102.624 380.358 102.576C380.214 102.576 380.07 102.576 379.926 102.576C376.086 102.528 375.174 102.48 374.502 102.48ZM379.206 80.448C376.71 80.448 375.078 82.32 375.078 86.352C375.078 90.48 376.71 92.832 379.83 92.832C382.23 92.832 384.006 91.488 384.006 86.928C384.006 83.04 382.278 80.448 379.206 80.448ZM393.528 94.128H394.776C395.784 99.072 397.608 100.752 401.16 100.752C403.56 100.752 405.288 99.84 405.288 97.584C405.288 95.328 404.376 94.416 399.912 92.208C395.544 90 393.576 88.32 393.576 84.768C393.576 80.832 396.792 78.72 400.92 78.72C403.32 78.72 404.76 79.392 405.96 79.968H406.008L406.824 78.96H407.784L407.928 86.304H406.632C405.576 81.744 403.8 80.352 400.872 80.352C398.664 80.352 396.984 81.36 396.984 83.52C396.984 85.392 398.568 86.592 402.6 88.656C406.968 90.96 409.32 92.736 409.32 96.288C409.32 100.8 405.576 102.528 401.256 102.528C398.472 102.528 397.032 101.808 395.784 101.28H395.688L394.68 102.384H393.672L393.528 94.128ZM425.57 89.04C425.57 99.744 420.53 107.376 412.802 111.408L412.034 110.16C419.042 105.408 421.634 98.832 421.634 89.04C421.634 79.248 419.042 72.672 412.034 67.92L412.802 66.672C420.53 70.704 425.57 78.336 425.57 89.04ZM442.726 89.04C442.726 99.744 437.686 107.376 429.958 111.408L429.19 110.16C436.198 105.408 438.79 98.832 438.79 89.04C438.79 79.248 436.198 72.672 429.19 67.92L429.958 66.672C437.686 70.704 442.726 78.336 442.726 89.04Z" fill="black"/>
<path d="M217.542 102H207.51V100.608C209.19 100.608 209.766 100.368 209.766 99.552C209.766 99.216 209.67 98.928 209.43 98.544L206.406 93.888L205.446 92.208H205.254L201.318 97.872C200.838 98.64 200.166 99.504 200.166 99.888C200.166 100.416 200.742 100.608 202.326 100.608V102H194.31V100.608C195.942 100.608 196.806 100.08 198.39 98.208L204.15 90.72L199.158 83.568C197.478 81.168 196.902 80.688 194.934 80.688V79.296H205.254V80.64C203.718 80.64 202.95 81.024 202.95 81.744C202.95 82.512 203.814 83.52 205.446 86.208L206.598 88.32H206.79L209.046 85.056C210.342 83.28 210.774 82.56 210.774 81.792C210.774 81.072 210.342 80.64 208.806 80.64V79.296H216.726V80.688C215.094 80.688 213.99 81.552 212.886 82.944L207.798 89.472L213.702 97.824C215.046 99.744 215.766 100.608 217.542 100.608V102Z" fill="#5BD660"/>
<path d="M257.667 102H247.635V100.608C249.315 100.608 249.891 100.368 249.891 99.552C249.891 99.216 249.795 98.928 249.555 98.544L246.531 93.888L245.571 92.208H245.379L241.443 97.872C240.963 98.64 240.291 99.504 240.291 99.888C240.291 100.416 240.867 100.608 242.451 100.608V102H234.435V100.608C236.067 100.608 236.931 100.08 238.515 98.208L244.275 90.72L239.283 83.568C237.603 81.168 237.027 80.688 235.059 80.688V79.296H245.379V80.64C243.843 80.64 243.075 81.024 243.075 81.744C243.075 82.512 243.939 83.52 245.571 86.208L246.723 88.32H246.915L249.171 85.056C250.467 83.28 250.899 82.56 250.899 81.792C250.899 81.072 250.467 80.64 248.931 80.64V79.296H256.851V80.688C255.219 80.688 254.115 81.552 253.011 82.944L247.923 89.472L253.827 97.824C255.171 99.744 255.891 100.608 257.667 100.608V102Z" fill="#1F81D2"/>
<path d="M483.16 92.04C483.16 81.336 488.2 73.704 495.928 69.672L496.696 70.92C489.688 75.672 487.096 82.248 487.096 92.04C487.096 101.832 489.688 108.408 496.696 113.16L495.928 114.408C488.2 110.376 483.16 102.744 483.16 92.04ZM521.292 105H511.26V103.608C512.94 103.608 513.516 103.368 513.516 102.552C513.516 102.216 513.42 101.928 513.18 101.544L510.156 96.888L509.196 95.208H509.004L505.068 100.872C504.588 101.64 503.916 102.504 503.916 102.888C503.916 103.416 504.492 103.608 506.076 103.608V105H498.06V103.608C499.692 103.608 500.556 103.08 502.14 101.208L507.9 93.72L502.908 86.568C501.228 84.168 500.652 83.688 498.684 83.688V82.296H509.004V83.64C507.468 83.64 506.7 84.024 506.7 84.744C506.7 85.512 507.564 86.52 509.196 89.208L510.348 91.32H510.54L512.796 88.056C514.092 86.28 514.524 85.56 514.524 84.792C514.524 84.072 514.092 83.64 512.556 83.64V82.296H520.476V83.688C518.844 83.688 517.74 84.552 516.636 85.944L511.548 92.472L517.452 100.824C518.796 102.744 519.516 103.608 521.292 103.608V105ZM564.006 89.304H535.398V86.04H564.006V89.304ZM564.006 99.096H535.398V95.88H564.006V99.096ZM598.169 92.76L570.377 106.2V102.984L591.593 92.52L570.377 82.056V78.744L598.169 92.28V92.76ZM621.597 102.6C621.597 104.088 620.541 105.384 618.621 105.384C616.701 105.384 615.789 104.184 615.789 102.552C615.789 100.92 616.893 99.528 618.669 99.528C620.541 99.528 621.597 100.968 621.597 102.6ZM633.362 102.6C633.362 104.088 632.306 105.384 630.386 105.384C628.466 105.384 627.554 104.184 627.554 102.552C627.554 100.92 628.658 99.528 630.434 99.528C632.306 99.528 633.362 100.968 633.362 102.6ZM645.128 102.6C645.128 104.088 644.072 105.384 642.152 105.384C640.232 105.384 639.32 104.184 639.32 102.552C639.32 100.92 640.424 99.528 642.2 99.528C644.072 99.528 645.128 100.968 645.128 102.6ZM682.542 105H672.51V103.608C674.19 103.608 674.766 103.368 674.766 102.552C674.766 102.216 674.67 101.928 674.43 101.544L671.406 96.888L670.446 95.208H670.254L666.318 100.872C665.838 101.64 665.166 102.504 665.166 102.888C665.166 103.416 665.742 103.608 667.326 103.608V105H659.31V103.608C660.942 103.608 661.806 103.08 663.39 101.208L669.15 93.72L664.158 86.568C662.478 84.168 661.902 83.688 659.934 83.688V82.296H670.254V83.64C668.718 83.64 667.95 84.024 667.95 84.744C667.95 85.512 668.814 86.52 670.446 89.208L671.598 91.32H671.79L674.046 88.056C675.342 86.28 675.774 85.56 675.774 84.792C675.774 84.072 675.342 83.64 673.806 83.64V82.296H681.726V83.688C680.094 83.688 678.99 84.552 677.886 85.944L672.798 92.472L678.702 100.824C680.046 102.744 680.766 103.608 682.542 103.608V105ZM684.535 92.04C684.535 81.336 689.575 73.704 697.303 69.672L698.071 70.92C691.063 75.672 688.471 82.248 688.471 92.04C688.471 101.832 691.063 108.408 698.071 113.16L697.303 114.408C689.575 110.376 684.535 102.744 684.535 92.04ZM722.667 105H712.635V103.608C714.315 103.608 714.891 103.368 714.891 102.552C714.891 102.216 714.795 101.928 714.555 101.544L711.531 96.888L710.571 95.208H710.379L706.443 100.872C705.963 101.64 705.291 102.504 705.291 102.888C705.291 103.416 705.867 103.608 707.451 103.608V105H699.435V103.608C701.067 103.608 701.931 103.08 703.515 101.208L709.275 93.72L704.283 86.568C702.603 84.168 702.027 83.688 700.059 83.688V82.296H710.379V83.64C708.843 83.64 708.075 84.024 708.075 84.744C708.075 85.512 708.939 86.52 710.571 89.208L711.723 91.32H711.915L714.171 88.056C715.467 86.28 715.899 85.56 715.899 84.792C715.899 84.072 715.467 83.64 713.931 83.64V82.296H721.851V83.688C720.219 83.688 719.115 84.552 718.011 85.944L712.923 92.472L718.827 100.824C720.171 102.744 720.891 103.608 722.667 103.608V105ZM737.476 92.04C737.476 102.744 732.436 110.376 724.708 114.408L723.94 113.16C730.948 108.408 733.54 101.832 733.54 92.04C733.54 82.248 730.948 75.672 723.94 70.92L724.708 69.672C732.436 73.704 737.476 81.336 737.476 92.04ZM741.816 92.04C741.816 81.336 746.856 73.704 754.584 69.672L755.352 70.92C748.344 75.672 745.752 82.248 745.752 92.04C745.752 101.832 748.344 108.408 755.352 113.16L754.584 114.408C746.856 110.376 741.816 102.744 741.816 92.04ZM765.597 102.6C765.597 104.088 764.541 105.384 762.621 105.384C760.701 105.384 759.789 104.184 759.789 102.552C759.789 100.92 760.893 99.528 762.669 99.528C764.541 99.528 765.597 100.968 765.597 102.6ZM777.362 102.6C777.362 104.088 776.306 105.384 774.386 105.384C772.466 105.384 771.554 104.184 771.554 102.552C771.554 100.92 772.658 99.528 774.434 99.528C776.306 99.528 777.362 100.968 777.362 102.6ZM789.128 102.6C789.128 104.088 788.072 105.384 786.152 105.384C784.232 105.384 783.32 104.184 783.32 102.552C783.32 100.92 784.424 99.528 786.2 99.528C788.072 99.528 789.128 100.968 789.128 102.6ZM806.893 102.024H806.701C804.445 103.992 802.717 105.336 799.645 105.336C795.949 105.336 793.933 103.032 793.933 99.96C793.933 93.624 802.429 92.376 806.557 91.08V88.968C806.557 84.792 805.117 83.208 802.237 83.208C799.501 83.208 799.021 84.216 799.021 87.096C799.021 88.584 798.253 89.304 796.909 89.304C795.949 89.304 794.893 88.584 794.893 87C794.893 84.312 798.109 81.72 803.341 81.72C808.573 81.72 810.541 84.12 810.541 89.112V100.008C810.541 101.976 810.973 102.36 811.981 102.36C812.893 102.36 813.565 101.88 814.237 101.16L814.957 101.928C813.373 104.232 812.221 105.24 809.773 105.24C807.661 105.24 807.181 104.136 806.893 102.024ZM806.557 100.584V92.664C802.189 93.768 798.157 95.064 798.157 98.808C798.157 101.208 799.549 102.696 801.613 102.696C803.197 102.696 804.925 101.928 806.557 100.584ZM823.956 81.864V86.808H824.1C826.548 83.256 827.988 81.576 830.292 81.576C832.164 81.576 833.076 82.632 833.076 84.264C833.076 86.088 832.02 86.856 830.964 86.856C829.38 86.856 828.42 85.224 827.844 85.224C826.74 85.224 825.204 87.24 824.052 89.16V100.104C824.052 103.128 824.964 103.608 828.564 103.608V105H816.564V103.608C819.732 103.608 820.068 103.032 820.068 100.344V87.144C820.068 85.416 820.068 84.552 818.34 84.552C817.38 84.552 816.852 84.648 816.852 84.648V83.304L822.804 81.864H823.956ZM839.55 96.168V96.072C837.246 94.728 835.854 92.664 835.854 89.544C835.854 84.744 839.454 81.72 844.542 81.72C847.71 81.72 849.87 82.92 849.87 82.92L856.062 82.584V85.176L851.55 85.032V85.272C852.222 86.232 853.278 87.816 853.278 90.216C853.278 94.68 849.822 97.512 844.782 97.512C843.246 97.512 841.902 97.224 840.654 96.792C840.174 97.464 839.406 99.192 839.406 100.008C839.406 101.448 840.654 101.928 845.07 101.928C851.118 101.928 855.726 102.12 855.726 107.64C855.726 114.072 848.622 116.28 842.574 116.28C836.286 116.28 834.414 113.64 834.414 111C834.414 109.416 835.71 107.784 838.302 105.288V105.096C836.67 104.28 835.614 102.984 835.614 101.64C835.614 99.912 837.294 97.896 839.55 96.168ZM839.502 105.48C838.494 107.256 838.158 108.36 838.158 109.368C838.158 112.152 840.462 113.544 845.358 113.544C851.022 113.544 853.278 111.048 853.278 108.984C853.278 105.672 848.574 105.624 845.358 105.576C845.214 105.576 845.07 105.576 844.926 105.576C841.086 105.528 840.174 105.48 839.502 105.48ZM844.206 83.448C841.71 83.448 840.078 85.32 840.078 89.352C840.078 93.48 841.71 95.832 844.83 95.832C847.23 95.832 849.006 94.488 849.006 89.928C849.006 86.04 847.278 83.448 844.206 83.448ZM858.528 97.128H859.776C860.784 102.072 862.608 103.752 866.16 103.752C868.56 103.752 870.288 102.84 870.288 100.584C870.288 98.328 869.376 97.416 864.912 95.208C860.544 93 858.576 91.32 858.576 87.768C858.576 83.832 861.792 81.72 865.92 81.72C868.32 81.72 869.76 82.392 870.96 82.968H871.008L871.824 81.96H872.784L872.928 89.304H871.632C870.576 84.744 868.8 83.352 865.872 83.352C863.664 83.352 861.984 84.36 861.984 86.52C861.984 88.392 863.568 89.592 867.6 91.656C871.968 93.96 874.32 95.736 874.32 99.288C874.32 103.8 870.576 105.528 866.256 105.528C863.472 105.528 862.032 104.808 860.784 104.28H860.688L859.68 105.384H858.672L858.528 97.128ZM890.57 92.04C890.57 102.744 885.53 110.376 877.802 114.408L877.034 113.16C884.042 108.408 886.634 101.832 886.634 92.04C886.634 82.248 884.042 75.672 877.034 70.92L877.802 69.672C885.53 73.704 890.57 81.336 890.57 92.04ZM907.726 92.04C907.726 102.744 902.686 110.376 894.958 114.408L894.19 113.16C901.198 108.408 903.79 101.832 903.79 92.04C903.79 82.248 901.198 75.672 894.19 70.92L894.958 69.672C902.686 73.704 907.726 81.336 907.726 92.04Z" fill="black"/>
<path d="M18.16 333.04C18.16 322.336 23.2 314.704 30.928 310.672L31.696 311.92C24.688 316.672 22.096 323.248 22.096 333.04C22.096 342.832 24.688 349.408 31.696 354.16L30.928 355.408C23.2 351.376 18.16 343.744 18.16 333.04ZM56.2923 346H46.2603V344.608C47.9403 344.608 48.5163 344.368 48.5163 343.552C48.5163 343.216 48.4203 342.928 48.1803 342.544L45.1562 337.888L44.1963 336.208H44.0043L40.0683 341.872C39.5883 342.64 38.9163 343.504 38.9163 343.888C38.9163 344.416 39.4922 344.608 41.0763 344.608V346H33.0602V344.608C34.6923 344.608 35.5563 344.08 37.1403 342.208L42.9003 334.72L37.9083 327.568C36.2283 325.168 35.6523 324.688 33.6843 324.688V323.296H44.0043V324.64C42.4683 324.64 41.7003 325.024 41.7003 325.744C41.7003 326.512 42.5643 327.52 44.1963 330.208L45.3483 332.32H45.5403L47.7963 329.056C49.0923 327.28 49.5243 326.56 49.5243 325.792C49.5243 325.072 49.0923 324.64 47.5563 324.64V323.296H55.4763V324.688C53.8443 324.688 52.7403 325.552 51.6363 326.944L46.5483 333.472L52.4523 341.824C53.7963 343.744 54.5163 344.608 56.2923 344.608V346ZM99.0059 330.304H70.3979V327.04H99.0059V330.304ZM99.0059 340.096H70.3979V336.88H99.0059V340.096ZM133.169 333.76L105.377 347.2V343.984L126.593 333.52L105.377 323.056V319.744L133.169 333.28V333.76ZM156.597 343.6C156.597 345.088 155.541 346.384 153.621 346.384C151.701 346.384 150.789 345.184 150.789 343.552C150.789 341.92 151.893 340.528 153.669 340.528C155.541 340.528 156.597 341.968 156.597 343.6ZM168.362 343.6C168.362 345.088 167.306 346.384 165.386 346.384C163.466 346.384 162.554 345.184 162.554 343.552C162.554 341.92 163.658 340.528 165.434 340.528C167.306 340.528 168.362 341.968 168.362 343.6ZM180.128 343.6C180.128 345.088 179.072 346.384 177.152 346.384C175.232 346.384 174.32 345.184 174.32 343.552C174.32 341.92 175.424 340.528 177.2 340.528C179.072 340.528 180.128 341.968 180.128 343.6ZM217.542 346H207.51V344.608C209.19 344.608 209.766 344.368 209.766 343.552C209.766 343.216 209.67 342.928 209.43 342.544L206.406 337.888L205.446 336.208H205.254L201.318 341.872C200.838 342.64 200.166 343.504 200.166 343.888C200.166 344.416 200.742 344.608 202.326 344.608V346H194.31V344.608C195.942 344.608 196.806 344.08 198.39 342.208L204.15 334.72L199.158 327.568C197.478 325.168 196.902 324.688 194.934 324.688V323.296H205.254V324.64C203.718 324.64 202.95 325.024 202.95 325.744C202.95 326.512 203.814 327.52 205.446 330.208L206.598 332.32H206.79L209.046 329.056C210.342 327.28 210.774 326.56 210.774 325.792C210.774 325.072 210.342 324.64 208.806 324.64V323.296H216.726V324.688C215.094 324.688 213.99 325.552 212.886 326.944L207.798 333.472L213.702 341.824C215.046 343.744 215.766 344.608 217.542 344.608V346ZM219.535 333.04C219.535 322.336 224.575 314.704 232.303 310.672L233.071 311.92C226.063 316.672 223.471 323.248 223.471 333.04C223.471 342.832 226.063 349.408 233.071 354.16L232.303 355.408C224.575 351.376 219.535 343.744 219.535 333.04ZM257.667 346H247.635V344.608C249.315 344.608 249.891 344.368 249.891 343.552C249.891 343.216 249.795 342.928 249.555 342.544L246.531 337.888L245.571 336.208H245.379L241.443 341.872C240.963 342.64 240.291 343.504 240.291 343.888C240.291 344.416 240.867 344.608 242.451 344.608V346H234.435V344.608C236.067 344.608 236.931 344.08 238.515 342.208L244.275 334.72L239.283 327.568C237.603 325.168 237.027 324.688 235.059 324.688V323.296H245.379V324.64C243.843 324.64 243.075 325.024 243.075 325.744C243.075 326.512 243.939 327.52 245.571 330.208L246.723 332.32H246.915L249.171 329.056C250.467 327.28 250.899 326.56 250.899 325.792C250.899 325.072 250.467 324.64 248.931 324.64V323.296H256.851V324.688C255.219 324.688 254.115 325.552 253.011 326.944L247.923 333.472L253.827 341.824C255.171 343.744 255.891 344.608 257.667 344.608V346ZM272.476 333.04C272.476 343.744 267.436 351.376 259.708 355.408L258.94 354.16C265.948 349.408 268.54 342.832 268.54 333.04C268.54 323.248 265.948 316.672 258.94 311.92L259.708 310.672C267.436 314.704 272.476 322.336 272.476 333.04ZM276.816 333.04C276.816 322.336 281.856 314.704 289.584 310.672L290.352 311.92C283.344 316.672 280.752 323.248 280.752 333.04C280.752 342.832 283.344 349.408 290.352 354.16L289.584 355.408C281.856 351.376 276.816 343.744 276.816 333.04ZM300.597 343.6C300.597 345.088 299.541 346.384 297.621 346.384C295.701 346.384 294.789 345.184 294.789 343.552C294.789 341.92 295.893 340.528 297.669 340.528C299.541 340.528 300.597 341.968 300.597 343.6ZM312.362 343.6C312.362 345.088 311.306 346.384 309.386 346.384C307.466 346.384 306.554 345.184 306.554 343.552C306.554 341.92 307.658 340.528 309.434 340.528C311.306 340.528 312.362 341.968 312.362 343.6ZM324.128 343.6C324.128 345.088 323.072 346.384 321.152 346.384C319.232 346.384 318.32 345.184 318.32 343.552C318.32 341.92 319.424 340.528 321.2 340.528C323.072 340.528 324.128 341.968 324.128 343.6ZM341.893 343.024H341.701C339.445 344.992 337.717 346.336 334.645 346.336C330.949 346.336 328.933 344.032 328.933 340.96C328.933 334.624 337.429 333.376 341.557 332.08V329.968C341.557 325.792 340.117 324.208 337.237 324.208C334.501 324.208 334.021 325.216 334.021 328.096C334.021 329.584 333.253 330.304 331.909 330.304C330.949 330.304 329.893 329.584 329.893 328C329.893 325.312 333.109 322.72 338.341 322.72C343.573 322.72 345.541 325.12 345.541 330.112V341.008C345.541 342.976 345.973 343.36 346.981 343.36C347.893 343.36 348.565 342.88 349.237 342.16L349.957 342.928C348.373 345.232 347.221 346.24 344.773 346.24C342.661 346.24 342.181 345.136 341.893 343.024ZM341.557 341.584V333.664C337.189 334.768 333.157 336.064 333.157 339.808C333.157 342.208 334.549 343.696 336.613 343.696C338.197 343.696 339.925 342.928 341.557 341.584ZM358.956 322.864V327.808H359.1C361.548 324.256 362.988 322.576 365.292 322.576C367.164 322.576 368.076 323.632 368.076 325.264C368.076 327.088 367.02 327.856 365.964 327.856C364.38 327.856 363.42 326.224 362.844 326.224C361.74 326.224 360.204 328.24 359.052 330.16V341.104C359.052 344.128 359.964 344.608 363.564 344.608V346H351.564V344.608C354.732 344.608 355.068 344.032 355.068 341.344V328.144C355.068 326.416 355.068 325.552 353.34 325.552C352.38 325.552 351.852 325.648 351.852 325.648V324.304L357.804 322.864H358.956ZM374.55 337.168V337.072C372.246 335.728 370.854 333.664 370.854 330.544C370.854 325.744 374.454 322.72 379.542 322.72C382.71 322.72 384.87 323.92 384.87 323.92L391.062 323.584V326.176L386.55 326.032V326.272C387.222 327.232 388.278 328.816 388.278 331.216C388.278 335.68 384.822 338.512 379.782 338.512C378.246 338.512 376.902 338.224 375.654 337.792C375.174 338.464 374.406 340.192 374.406 341.008C374.406 342.448 375.654 342.928 380.07 342.928C386.118 342.928 390.726 343.12 390.726 348.64C390.726 355.072 383.622 357.28 377.574 357.28C371.286 357.28 369.414 354.64 369.414 352C369.414 350.416 370.71 348.784 373.302 346.288V346.096C371.67 345.28 370.614 343.984 370.614 342.64C370.614 340.912 372.294 338.896 374.55 337.168ZM374.502 346.48C373.494 348.256 373.158 349.36 373.158 350.368C373.158 353.152 375.462 354.544 380.358 354.544C386.022 354.544 388.278 352.048 388.278 349.984C388.278 346.672 383.574 346.624 380.358 346.576C380.214 346.576 380.07 346.576 379.926 346.576C376.086 346.528 375.174 346.48 374.502 346.48ZM379.206 324.448C376.71 324.448 375.078 326.32 375.078 330.352C375.078 334.48 376.71 336.832 379.83 336.832C382.23 336.832 384.006 335.488 384.006 330.928C384.006 327.04 382.278 324.448 379.206 324.448ZM393.528 338.128H394.776C395.784 343.072 397.608 344.752 401.16 344.752C403.56 344.752 405.288 343.84 405.288 341.584C405.288 339.328 404.376 338.416 399.912 336.208C395.544 334 393.576 332.32 393.576 328.768C393.576 324.832 396.792 322.72 400.92 322.72C403.32 322.72 404.76 323.392 405.96 323.968H406.008L406.824 322.96H407.784L407.928 330.304H406.632C405.576 325.744 403.8 324.352 400.872 324.352C398.664 324.352 396.984 325.36 396.984 327.52C396.984 329.392 398.568 330.592 402.6 332.656C406.968 334.96 409.32 336.736 409.32 340.288C409.32 344.8 405.576 346.528 401.256 346.528C398.472 346.528 397.032 345.808 395.784 345.28H395.688L394.68 346.384H393.672L393.528 338.128ZM425.57 333.04C425.57 343.744 420.53 351.376 412.802 355.408L412.034 354.16C419.042 349.408 421.634 342.832 421.634 333.04C421.634 323.248 419.042 316.672 412.034 311.92L412.802 310.672C420.53 314.704 425.57 322.336 425.57 333.04ZM442.726 333.04C442.726 343.744 437.686 351.376 429.958 355.408L429.19 354.16C436.198 349.408 438.79 342.832 438.79 333.04C438.79 323.248 436.198 316.672 429.19 311.92L429.958 310.672C437.686 314.704 442.726 322.336 442.726 333.04ZM480.957 333.04C480.957 322.336 485.997 314.704 493.725 310.672L494.493 311.92C487.485 316.672 484.893 323.248 484.893 333.04C484.893 342.832 487.485 349.408 494.493 354.16L493.725 355.408C485.997 351.376 480.957 343.744 480.957 333.04ZM519.089 346H509.057V344.608C510.737 344.608 511.313 344.368 511.313 343.552C511.313 343.216 511.217 342.928 510.977 342.544L507.953 337.888L506.993 336.208H506.801L502.865 341.872C502.385 342.64 501.713 343.504 501.713 343.888C501.713 344.416 502.289 344.608 503.873 344.608V346H495.857V344.608C497.489 344.608 498.353 344.08 499.937 342.208L505.697 334.72L500.705 327.568C499.025 325.168 498.449 324.688 496.481 324.688V323.296H506.801V324.64C505.265 324.64 504.497 325.024 504.497 325.744C504.497 326.512 505.361 327.52 506.993 330.208L508.145 332.32H508.337L510.593 329.056C511.889 327.28 512.321 326.56 512.321 325.792C512.321 325.072 511.889 324.64 510.353 324.64V323.296H518.273V324.688C516.641 324.688 515.537 325.552 514.433 326.944L509.345 333.472L515.249 341.824C516.593 343.744 517.313 344.608 519.089 344.608V346ZM561.803 330.304H533.195V327.04H561.803V330.304ZM561.803 340.096H533.195V336.88H561.803V340.096ZM595.966 333.76L568.174 347.2V343.984L589.39 333.52L568.174 323.056V319.744L595.966 333.28V333.76ZM619.393 343.6C619.393 345.088 618.337 346.384 616.417 346.384C614.497 346.384 613.585 345.184 613.585 343.552C613.585 341.92 614.689 340.528 616.465 340.528C618.337 340.528 619.393 341.968 619.393 343.6ZM631.159 343.6C631.159 345.088 630.103 346.384 628.183 346.384C626.263 346.384 625.351 345.184 625.351 343.552C625.351 341.92 626.455 340.528 628.231 340.528C630.103 340.528 631.159 341.968 631.159 343.6ZM642.925 343.6C642.925 345.088 641.869 346.384 639.949 346.384C638.029 346.384 637.117 345.184 637.117 343.552C637.117 341.92 638.221 340.528 639.997 340.528C641.869 340.528 642.925 341.968 642.925 343.6ZM680.339 346H670.307V344.608C671.987 344.608 672.563 344.368 672.563 343.552C672.563 343.216 672.467 342.928 672.227 342.544L669.203 337.888L668.243 336.208H668.051L664.115 341.872C663.635 342.64 662.963 343.504 662.963 343.888C662.963 344.416 663.539 344.608 665.123 344.608V346H657.107V344.608C658.739 344.608 659.603 344.08 661.187 342.208L666.947 334.72L661.955 327.568C660.275 325.168 659.699 324.688 657.731 324.688V323.296H668.051V324.64C666.515 324.64 665.747 325.024 665.747 325.744C665.747 326.512 666.611 327.52 668.243 330.208L669.395 332.32H669.587L671.843 329.056C673.139 327.28 673.571 326.56 673.571 325.792C673.571 325.072 673.139 324.64 671.603 324.64V323.296H679.523V324.688C677.891 324.688 676.787 325.552 675.683 326.944L670.595 333.472L676.499 341.824C677.843 343.744 678.563 344.608 680.339 344.608V346ZM682.332 333.04C682.332 322.336 687.372 314.704 695.1 310.672L695.868 311.92C688.86 316.672 686.268 323.248 686.268 333.04C686.268 342.832 688.86 349.408 695.868 354.16L695.1 355.408C687.372 351.376 682.332 343.744 682.332 333.04ZM720.464 346H710.432V344.608C712.112 344.608 712.688 344.368 712.688 343.552C712.688 343.216 712.592 342.928 712.352 342.544L709.328 337.888L708.368 336.208H708.176L704.24 341.872C703.76 342.64 703.088 343.504 703.088 343.888C703.088 344.416 703.664 344.608 705.248 344.608V346H697.232V344.608C698.864 344.608 699.728 344.08 701.312 342.208L707.072 334.72L702.08 327.568C700.4 325.168 699.824 324.688 697.856 324.688V323.296H708.176V324.64C706.64 324.64 705.872 325.024 705.872 325.744C705.872 326.512 706.736 327.52 708.368 330.208L709.52 332.32H709.712L711.968 329.056C713.264 327.28 713.696 326.56 713.696 325.792C713.696 325.072 713.264 324.64 711.728 324.64V323.296H719.648V324.688C718.016 324.688 716.912 325.552 715.808 326.944L710.72 333.472L716.624 341.824C717.968 343.744 718.688 344.608 720.464 344.608V346ZM735.273 333.04C735.273 343.744 730.233 351.376 722.505 355.408L721.737 354.16C728.745 349.408 731.337 342.832 731.337 333.04C731.337 323.248 728.745 316.672 721.737 311.92L722.505 310.672C730.233 314.704 735.273 322.336 735.273 333.04ZM739.613 333.04C739.613 322.336 744.653 314.704 752.381 310.672L753.149 311.92C746.141 316.672 743.549 323.248 743.549 333.04C743.549 342.832 746.141 349.408 753.149 354.16L752.381 355.408C744.653 351.376 739.613 343.744 739.613 333.04ZM763.393 343.6C763.393 345.088 762.337 346.384 760.417 346.384C758.497 346.384 757.585 345.184 757.585 343.552C757.585 341.92 758.689 340.528 760.465 340.528C762.337 340.528 763.393 341.968 763.393 343.6ZM775.159 343.6C775.159 345.088 774.103 346.384 772.183 346.384C770.263 346.384 769.351 345.184 769.351 343.552C769.351 341.92 770.455 340.528 772.231 340.528C774.103 340.528 775.159 341.968 775.159 343.6ZM786.925 343.6C786.925 345.088 785.869 346.384 783.949 346.384C782.029 346.384 781.117 345.184 781.117 343.552C781.117 341.92 782.221 340.528 783.997 340.528C785.869 340.528 786.925 341.968 786.925 343.6ZM804.69 343.024H804.498C802.242 344.992 800.514 346.336 797.442 346.336C793.746 346.336 791.73 344.032 791.73 340.96C791.73 334.624 800.226 333.376 804.354 332.08V329.968C804.354 325.792 802.914 324.208 800.034 324.208C797.298 324.208 796.818 325.216 796.818 328.096C796.818 329.584 796.05 330.304 794.706 330.304C793.746 330.304 792.69 329.584 792.69 328C792.69 325.312 795.906 322.72 801.138 322.72C806.37 322.72 808.338 325.12 808.338 330.112V341.008C808.338 342.976 808.77 343.36 809.778 343.36C810.69 343.36 811.362 342.88 812.034 342.16L812.754 342.928C811.17 345.232 810.018 346.24 807.57 346.24C805.458 346.24 804.978 345.136 804.69 343.024ZM804.354 341.584V333.664C799.986 334.768 795.954 336.064 795.954 339.808C795.954 342.208 797.346 343.696 799.41 343.696C800.994 343.696 802.722 342.928 804.354 341.584ZM821.753 322.864V327.808H821.897C824.345 324.256 825.785 322.576 828.089 322.576C829.961 322.576 830.873 323.632 830.873 325.264C830.873 327.088 829.817 327.856 828.761 327.856C827.177 327.856 826.217 326.224 825.641 326.224C824.537 326.224 823.001 328.24 821.849 330.16V341.104C821.849 344.128 822.761 344.608 826.361 344.608V346H814.361V344.608C817.529 344.608 817.865 344.032 817.865 341.344V328.144C817.865 326.416 817.865 325.552 816.137 325.552C815.177 325.552 814.649 325.648 814.649 325.648V324.304L820.601 322.864H821.753ZM837.347 337.168V337.072C835.043 335.728 833.651 333.664 833.651 330.544C833.651 325.744 837.251 322.72 842.339 322.72C845.507 322.72 847.667 323.92 847.667 323.92L853.859 323.584V326.176L849.347 326.032V326.272C850.019 327.232 851.075 328.816 851.075 331.216C851.075 335.68 847.619 338.512 842.579 338.512C841.043 338.512 839.699 338.224 838.451 337.792C837.971 338.464 837.203 340.192 837.203 341.008C837.203 342.448 838.451 342.928 842.867 342.928C848.915 342.928 853.523 343.12 853.523 348.64C853.523 355.072 846.419 357.28 840.371 357.28C834.083 357.28 832.211 354.64 832.211 352C832.211 350.416 833.507 348.784 836.099 346.288V346.096C834.467 345.28 833.411 343.984 833.411 342.64C833.411 340.912 835.091 338.896 837.347 337.168ZM837.299 346.48C836.291 348.256 835.955 349.36 835.955 350.368C835.955 353.152 838.259 354.544 843.155 354.544C848.819 354.544 851.075 352.048 851.075 349.984C851.075 346.672 846.371 346.624 843.155 346.576C843.011 346.576 842.867 346.576 842.723 346.576C838.883 346.528 837.971 346.48 837.299 346.48ZM842.003 324.448C839.507 324.448 837.875 326.32 837.875 330.352C837.875 334.48 839.507 336.832 842.627 336.832C845.027 336.832 846.803 335.488 846.803 330.928C846.803 327.04 845.075 324.448 842.003 324.448ZM856.325 338.128H857.573C858.581 343.072 860.405 344.752 863.957 344.752C866.357 344.752 868.085 343.84 868.085 341.584C868.085 339.328 867.173 338.416 862.709 336.208C858.341 334 856.373 332.32 856.373 328.768C856.373 324.832 859.589 322.72 863.717 322.72C866.117 322.72 867.557 323.392 868.757 323.968H868.805L869.621 322.96H870.581L870.725 330.304H869.429C868.373 325.744 866.597 324.352 863.669 324.352C861.461 324.352 859.781 325.36 859.781 327.52C859.781 329.392 861.365 330.592 865.397 332.656C869.765 334.96 872.117 336.736 872.117 340.288C872.117 344.8 868.373 346.528 864.053 346.528C861.269 346.528 859.829 345.808 858.581 345.28H858.485L857.477 346.384H856.469L856.325 338.128ZM888.367 333.04C888.367 343.744 883.327 351.376 875.599 355.408L874.831 354.16C881.839 349.408 884.431 342.832 884.431 333.04C884.431 323.248 881.839 316.672 874.831 311.92L875.599 310.672C883.327 314.704 888.367 322.336 888.367 333.04ZM905.523 333.04C905.523 343.744 900.483 351.376 892.755 355.408L891.987 354.16C898.995 349.408 901.587 342.832 901.587 333.04C901.587 323.248 898.995 316.672 891.987 311.92L892.755 310.672C900.483 314.704 905.523 322.336 905.523 333.04Z" fill="black"/>
<path d="M223.953 284.074C224.546 284.652 225.496 284.64 226.074 284.047L235.497 274.379C236.075 273.786 236.063 272.837 235.47 272.258C234.877 271.68 233.927 271.692 233.349 272.285L224.973 280.879L216.379 272.503C215.786 271.925 214.837 271.937 214.258 272.53C213.68 273.123 213.692 274.073 214.285 274.651L223.953 284.074ZM223 127L221.5 127.019L223.5 283.019L225 283L226.5 282.981L224.5 126.981L223 127Z" fill="#5BD660"/>
<rect x="1.5" y="294.5" width="447" height="78" stroke="#5BD660" stroke-width="3"/>
<rect x="466.5" y="294.5" width="456" height="78" stroke="#69B4F2" stroke-width="3"/>
<rect x="466.5" y="53.5" width="456" height="78" rx="3.5" stroke="#DB0E0E" stroke-width="3"/>
<path d="M695.647 284.353C696.395 283.996 696.711 283.1 696.353 282.353L690.529 270.174C690.171 269.427 689.276 269.111 688.528 269.468C687.781 269.825 687.465 270.721 687.822 271.468L693 282.294L682.174 287.471C681.427 287.829 681.111 288.724 681.468 289.472C681.825 290.219 682.721 290.535 683.468 290.178L695.647 284.353ZM253 127L252.501 128.414L694.501 284.414L695 283L695.499 281.586L253.499 125.586L253 127Z" fill="#69B4F2"/>
<path d="M707.5 1.5H709V0H707.5V1.5ZM43 1.5V0H41.5V1.5H43ZM41.9393 61.0607C42.5251 61.6464 43.4749 61.6464 44.0607 61.0607L53.6066 51.5147C54.1924 50.9289 54.1924 49.9792 53.6066 49.3934C53.0208 48.8076 52.0711 48.8076 51.4853 49.3934L43 57.8787L34.5147 49.3934C33.9289 48.8076 32.9792 48.8076 32.3934 49.3934C31.8076 49.9792 31.8076 50.9289 32.3934 51.5147L41.9393 61.0607ZM64.5 29V27.5H63V29H64.5ZM707.5 52H709V1.5H707.5H706V52H707.5ZM707.5 1.5V0H43V1.5V3H707.5V1.5ZM43 1.5H41.5V60H43H44.5V1.5H43ZM64.5 60H66V29H64.5H63V60H64.5ZM64.5 29V30.5H204.5V29V27.5H64.5V29ZM204.5 29V30.5H244.5V29V27.5H204.5V29Z" fill="#DB0E0E"/>
<path d="M205.439 59.0607C206.025 59.6464 206.975 59.6464 207.561 59.0607L217.107 49.5147C217.692 48.9289 217.692 47.9792 217.107 47.3934C216.521 46.8076 215.571 46.8076 214.985 47.3934L206.5 55.8787L198.015 47.3934C197.429 46.8076 196.479 46.8076 195.893 47.3934C195.308 47.9792 195.308 48.9289 195.893 49.5147L205.439 59.0607ZM206.5 30L205 30L205 58L206.5 58L208 58L208 30L206.5 30Z" fill="#DB0E0E"/>
<path d="M241.939 59.0607C242.525 59.6464 243.475 59.6464 244.061 59.0607L253.607 49.5147C254.192 48.9289 254.192 47.9792 253.607 47.3934C253.021 46.8076 252.071 46.8076 251.485 47.3934L243 55.8787L234.515 47.3934C233.929 46.8076 232.979 46.8076 232.393 47.3934C231.808 47.9792 231.808 48.9289 232.393 49.5147L241.939 59.0607ZM243 30H241.5V58H243H244.5V30H243Z" fill="#DB0E0E"/>
</svg>
